<svg width="1247" height="548" viewBox="0 0 1247 548" fill="none" xmlns="http://www.w3.org/2000/svg">
<rect width="1247" height="548" fill="#BEEBFF"/>
<path d="M509.5 243.073L249 393.173" stroke="#2D3D4F" stroke-width="2"/>
<path d="M236 131.5L127.501 195.941C124.218 197.891 124.244 202.652 127.548 204.566L552.671 450.794C555.914 452.666 559.895 452.712 563.181 450.923L809.897 304.089C814.672 301.144 820.691 301.109 825.5 304L897 348.5" stroke="#2D3D4F" stroke-width="2" stroke-miterlimit="10"/>
<path d="M1006.31 385.058C1035.51 385.058 1059.18 371.39 1059.18 354.529C1059.18 337.668 1035.51 324 1006.31 324C977.107 324 953.434 337.668 953.434 354.529C953.434 371.39 977.107 385.058 1006.31 385.058Z" fill="#D4FC63"/>
<path d="M1149.04 354.691C1147.3 351.541 1144.74 348.735 1141.47 346.017C1138.27 343.338 1134.5 340.892 1130.63 338.549C1128.86 337.462 1127.07 336.399 1125.25 335.351C1123.1 334.088 1120.93 332.841 1118.79 331.602L1070.88 303.947L1051.03 292.49C1048.85 291.251 1046.7 289.987 1044.54 288.764C1042.7 287.725 1040.87 286.678 1038.99 285.654C1037.96 285.102 1036.93 284.551 1035.89 283.999C1032.76 282.36 1029.53 280.785 1026.04 279.386C1022.5 277.963 1018.9 276.804 1014.99 275.852C1013.7 275.532 1012.37 275.261 1011.01 275.005C1006.98 274.253 1002.83 273.765 998.604 273.582C997.205 273.518 995.79 273.486 994.383 273.486C988.746 273.486 983.126 273.997 977.769 275.005C972.3 276.028 967.431 277.491 962.738 279.386C958.109 281.241 953.888 283.408 949.81 285.638C947.94 286.661 946.101 287.709 944.278 288.748C942.103 289.995 939.936 291.235 937.77 292.498L908.268 309.535L870.02 331.618C867.853 332.857 865.694 334.12 863.552 335.367C861.737 336.431 859.946 337.494 858.171 338.565C854.309 340.908 850.544 343.354 847.33 346.033C844.06 348.759 841.533 351.557 839.758 354.707C838 357.801 837.112 361.039 837.136 364.285V407.818C837.136 411.072 838.024 414.326 839.758 417.42C841.533 420.571 844.076 423.377 847.33 426.095C850.544 428.757 854.309 431.22 858.171 433.562C859.946 434.642 861.737 435.713 863.552 436.752C865.702 438.016 867.853 439.255 870.02 440.494L937.786 479.614C939.952 480.861 942.103 482.124 944.286 483.348C946.125 484.387 947.964 485.434 949.834 486.458C953.912 488.688 958.133 490.855 962.762 492.726C967.455 494.629 972.324 496.076 977.785 497.107C983.15 498.106 988.77 498.626 994.407 498.626C1000.04 498.626 1005.67 498.114 1011.03 497.107C1016.49 496.076 1021.36 494.629 1026.05 492.726C1030.67 490.871 1034.9 488.704 1038.98 486.474C1040.86 485.45 1042.68 484.435 1044.53 483.38C1046.69 482.14 1048.86 480.901 1051.04 479.638L1118.78 440.518C1120.94 439.271 1123.1 438.008 1125.25 436.768C1127.06 435.705 1128.85 434.658 1130.63 433.578C1134.49 431.236 1138.26 428.789 1141.46 426.103C1144.76 423.385 1147.28 420.587 1149.03 417.428C1150.79 414.334 1151.69 411.096 1151.69 407.826V364.293C1151.69 361.039 1150.79 357.785 1149.03 354.691H1149.04Z" fill="#182534" stroke="#182534" stroke-width="1.65497" stroke-linejoin="bevel"/>
<path d="M1125.1 392.979C1126.92 391.916 1128.71 390.869 1130.47 389.789C1134.34 387.447 1138.11 385 1141.35 382.314C1144.61 379.596 1147.13 376.79 1148.92 373.639C1150.68 370.545 1151.54 367.307 1151.54 364.061C1151.54 360.815 1150.67 357.553 1148.92 354.459C1147.14 351.309 1144.58 348.503 1141.35 345.785C1138.11 343.106 1134.34 340.66 1130.47 338.309C1128.71 337.23 1126.92 336.159 1125.1 335.119C1122.95 333.856 1120.78 332.617 1118.64 331.37L1070.73 303.707L1050.88 292.25C1048.71 291.011 1046.56 289.747 1044.38 288.524C1042.55 287.477 1040.72 286.438 1038.85 285.406C1037.82 284.855 1036.8 284.303 1035.75 283.751C1032.62 282.112 1029.39 280.537 1025.89 279.138C1022.36 277.715 1018.75 276.556 1014.85 275.604C1013.55 275.284 1012.24 275.013 1010.87 274.757C1006.85 274.013 1002.69 273.518 998.46 273.334C997.069 273.278 995.646 273.238 994.255 273.238C988.618 273.238 982.99 273.749 977.633 274.757C972.173 275.78 967.296 277.243 962.611 279.138C957.974 280.993 953.752 283.16 949.667 285.39C947.796 286.414 945.965 287.461 944.134 288.508C941.967 289.747 939.793 290.995 937.626 292.258L908.14 309.295L869.892 331.378C867.718 332.617 865.567 333.88 863.424 335.127C861.609 336.191 859.818 337.254 858.043 338.317C854.182 340.66 850.408 343.106 847.202 345.793C843.932 348.511 841.398 351.317 839.623 354.467C837.864 357.561 836.976 360.799 837 364.053C837 367.307 837.888 370.561 839.623 373.655C841.398 376.806 843.948 379.612 847.202 382.33C850.408 384.992 854.182 387.455 858.043 389.805C859.818 390.885 861.609 391.956 863.424 392.995C865.575 394.259 867.718 395.498 869.892 396.745L937.65 435.865C939.825 437.104 941.975 438.367 944.158 439.591C945.989 440.638 947.82 441.677 949.707 442.709C953.784 444.931 957.998 447.098 962.635 448.977C967.328 450.864 972.197 452.327 977.657 453.35C983.022 454.365 988.642 454.869 994.271 454.869C999.899 454.869 1005.54 454.365 1010.89 453.35C1016.35 452.327 1021.23 450.872 1025.92 448.977C1030.55 447.122 1034.77 444.947 1038.86 442.725C1040.73 441.701 1042.56 440.67 1044.39 439.623C1046.57 438.383 1048.73 437.144 1050.9 435.881L1118.65 396.761C1120.82 395.522 1122.97 394.259 1125.11 393.011V392.987L1125.1 392.979Z" fill="white"/>
<path d="M1125.1 350.379C1126.92 349.315 1128.71 348.268 1130.47 347.189C1134.34 344.846 1138.11 342.4 1141.35 339.713C1144.61 336.995 1147.13 334.189 1148.92 331.039C1150.68 327.945 1151.54 324.707 1151.54 321.461C1151.54 318.215 1150.67 314.953 1148.92 311.859C1147.14 308.709 1144.58 305.902 1141.35 303.184C1138.11 300.506 1134.34 298.059 1130.47 295.709C1128.71 294.629 1126.92 293.558 1125.1 292.519C1122.95 291.255 1120.78 290.016 1118.64 288.769L1070.73 261.106L1050.88 249.649C1048.71 248.41 1046.56 247.147 1044.38 245.924C1042.55 244.876 1040.72 243.837 1038.85 242.805C1037.82 242.254 1036.8 241.702 1035.75 241.151C1032.62 239.512 1029.39 237.936 1025.89 236.537C1022.36 235.114 1018.75 233.955 1014.85 233.004C1013.55 232.684 1012.24 232.412 1010.87 232.156C1006.85 231.413 1002.69 230.917 998.46 230.733C997.069 230.677 995.646 230.637 994.255 230.637C988.618 230.637 982.99 231.149 977.633 232.156C972.173 233.179 967.296 234.643 962.611 236.537C957.974 238.392 953.752 240.559 949.667 242.789C947.796 243.813 945.965 244.86 944.134 245.908C941.967 247.147 939.793 248.394 937.626 249.657L908.14 266.695L869.892 288.777C867.718 290.016 865.567 291.279 863.424 292.527C861.609 293.59 859.818 294.653 858.043 295.717C854.182 298.059 850.408 300.506 847.202 303.192C843.932 305.91 841.398 308.717 839.623 311.867C837.864 314.961 836.976 318.199 837 321.453C837 324.707 837.888 327.961 839.623 331.055C841.398 334.205 843.948 337.011 847.202 339.729C850.408 342.392 854.182 344.854 858.043 347.205C859.818 348.284 861.609 349.355 863.424 350.395C865.575 351.658 867.718 352.897 869.892 354.144L937.65 393.264C939.825 394.503 941.975 395.767 944.158 396.99C945.989 398.037 947.82 399.077 949.707 400.108C953.784 402.331 957.998 404.497 962.635 406.376C967.328 408.263 972.197 409.726 977.657 410.749C983.022 411.765 988.642 412.268 994.271 412.268C999.899 412.268 1005.54 411.765 1010.89 410.749C1016.35 409.726 1021.23 408.271 1025.92 406.376C1030.55 404.521 1034.77 402.347 1038.86 400.124C1040.73 399.101 1042.56 398.069 1044.39 397.022C1046.57 395.783 1048.73 394.543 1050.9 393.28L1118.65 354.16C1120.82 352.921 1122.97 351.658 1125.11 350.411V350.387L1125.1 350.379Z" fill="#3D4F5B" fill-opacity="0.2"/>
<g opacity="0.12">
<path d="M904.449 415.997L1084.4 312.101" stroke="#182534" stroke-width="1.65497" stroke-linejoin="bevel"/>
<path d="M949.437 441.965L1129.39 338.069" stroke="#182534" stroke-width="1.65497" stroke-linejoin="bevel"/>
<path d="M1039.41 286.126L859.461 390.021" stroke="#182534" stroke-width="1.65497" stroke-linejoin="bevel"/>
<path d="M904.449 312.101L1084.4 415.997" stroke="#182534" stroke-width="1.65497" stroke-linejoin="bevel"/>
<path d="M859.461 338.069L1039.41 441.965" stroke="#182534" stroke-width="1.65497" stroke-linejoin="bevel"/>
<path d="M1129.41 390.021L949.437 286.126" stroke="#182534" stroke-width="1.65497" stroke-linejoin="bevel"/>
<path d="M837.539 364.045H1151.31" stroke="#182534" stroke-width="1.65497" stroke-linejoin="bevel"/>
<path d="M994.425 272.958V455.141" stroke="#182534" stroke-width="1.65497" stroke-linejoin="bevel"/>
<path d="M994.425 389.949C1019.21 389.949 1039.29 378.348 1039.29 364.045C1039.29 349.742 1019.2 338.141 994.425 338.141C969.649 338.141 949.557 349.742 949.557 364.045C949.557 378.348 969.649 389.949 994.425 389.949Z" stroke="#182534" stroke-width="1.65497" stroke-linejoin="bevel"/>
<path d="M994.425 416.317C1044.42 416.317 1084.94 392.915 1084.94 364.053C1084.94 335.191 1044.41 311.79 994.425 311.79C944.44 311.79 903.913 335.191 903.913 364.053C903.913 392.915 944.44 416.317 994.425 416.317Z" stroke="#182534" stroke-width="1.65497" stroke-linejoin="bevel"/>
<path d="M994.425 390.021L949.437 364.045L994.425 338.069L1039.41 364.045L994.425 390.021Z" stroke="#182534" stroke-width="1.65497" stroke-linejoin="bevel"/>
</g>
<path d="M1125.1 392.979C1126.92 391.916 1128.71 390.869 1130.47 389.789C1134.34 387.447 1138.11 385 1141.35 382.314C1144.61 379.596 1147.13 376.79 1148.92 373.639C1150.68 370.545 1151.54 367.307 1151.54 364.061C1151.54 360.815 1150.67 357.553 1148.92 354.459C1147.14 351.309 1144.58 348.503 1141.35 345.785C1138.11 343.106 1134.34 340.66 1130.47 338.309C1128.71 337.23 1126.92 336.159 1125.1 335.119C1122.95 333.856 1120.78 332.617 1118.64 331.37L1070.73 303.707L1050.88 292.25C1048.71 291.011 1046.56 289.747 1044.38 288.524C1042.55 287.477 1040.72 286.438 1038.85 285.406C1037.82 284.855 1036.8 284.303 1035.75 283.751C1032.62 282.112 1029.39 280.537 1025.89 279.138C1022.36 277.715 1018.75 276.556 1014.85 275.604C1013.55 275.284 1012.24 275.013 1010.87 274.757C1006.85 274.013 1002.69 273.518 998.46 273.334C997.069 273.278 995.646 273.238 994.255 273.238C988.618 273.238 982.99 273.749 977.633 274.757C972.173 275.78 967.296 277.243 962.611 279.138C957.974 280.993 953.752 283.16 949.667 285.39C947.796 286.414 945.965 287.461 944.134 288.508C941.967 289.747 939.793 290.995 937.626 292.258L908.14 309.295L869.892 331.378C867.718 332.617 865.567 333.88 863.424 335.127C861.609 336.191 859.818 337.254 858.043 338.317C854.182 340.66 850.408 343.106 847.202 345.793C843.932 348.511 841.398 351.317 839.623 354.467C837.864 357.561 836.976 360.799 837 364.053C837 367.307 837.888 370.561 839.623 373.655C841.398 376.806 843.948 379.612 847.202 382.33C850.408 384.992 854.182 387.455 858.043 389.805C859.818 390.885 861.609 391.956 863.424 392.995C865.575 394.259 867.718 395.498 869.892 396.745L937.65 435.865C939.825 437.104 941.975 438.367 944.158 439.591C945.989 440.638 947.82 441.677 949.707 442.709C953.784 444.931 957.998 447.098 962.635 448.977C967.328 450.864 972.197 452.327 977.657 453.35C983.022 454.365 988.642 454.869 994.271 454.869C999.899 454.869 1005.54 454.365 1010.89 453.35C1016.35 452.327 1021.23 450.872 1025.92 448.977C1030.55 447.122 1034.77 444.947 1038.86 442.725C1040.73 441.701 1042.56 440.67 1044.39 439.623C1046.57 438.383 1048.73 437.144 1050.9 435.881L1118.65 396.761C1120.82 395.522 1122.97 394.259 1125.11 393.011V392.987L1125.1 392.979Z" stroke="#182534" stroke-width="1.65497" stroke-miterlimit="10"/>
<path d="M1124.26 301.757L1124.84 301.42L1125.06 301.29C1126.8 300.271 1128.52 299.267 1130.21 298.234L1130.21 298.234C1134.06 295.895 1137.81 293.464 1141.02 290.803C1144.25 288.113 1146.72 285.352 1148.47 282.27C1150.19 279.249 1151.03 276.098 1151.03 272.947C1151.03 269.795 1150.18 266.62 1148.47 263.599C1146.73 260.519 1144.22 257.759 1141.02 255.066C1137.81 252.413 1134.07 249.982 1130.21 247.636L1130.21 247.635C1128.44 246.557 1126.65 245.489 1124.85 244.453L1124.84 244.45C1123.54 243.688 1122.24 242.937 1120.95 242.187C1120.09 241.693 1119.24 241.199 1118.38 240.702C1118.38 240.702 1118.38 240.701 1118.38 240.701L1070.47 213.039L1050.62 201.583C1050.62 201.583 1050.62 201.583 1050.62 201.583C1049.79 201.107 1048.96 200.63 1048.14 200.153C1046.8 199.383 1045.47 198.615 1044.13 197.859L1044.13 197.858C1042.3 196.811 1040.47 195.774 1038.61 194.745C1038.35 194.607 1038.09 194.468 1037.83 194.329C1037.06 193.917 1036.29 193.505 1035.51 193.093C1032.38 191.459 1029.17 189.893 1025.7 188.503L1025.7 188.502C1022.19 187.089 1018.61 185.937 1014.73 184.991L1014.73 184.991C1013.44 184.674 1012.14 184.404 1010.77 184.149C1006.77 183.41 1002.64 182.917 998.439 182.735C997.052 182.679 995.636 182.639 994.255 182.639C988.649 182.639 983.053 183.148 977.729 184.149L977.728 184.149C972.302 185.166 967.458 186.62 962.804 188.502L962.802 188.503C958.193 190.346 953.992 192.502 949.914 194.728C948.05 195.748 946.225 196.792 944.395 197.839L944.39 197.842L944.134 197.394L944.39 197.842C942.224 199.081 940.051 200.327 937.886 201.589L937.884 201.59L908.399 218.628L908.398 218.628L870.15 240.71L870.148 240.711C868.474 241.665 866.815 242.633 865.161 243.598C864.668 243.885 864.176 244.172 863.685 244.458C861.872 245.52 860.083 246.583 858.31 247.645C854.454 249.984 850.708 252.414 847.534 255.074L847.532 255.075C844.295 257.766 841.808 260.526 840.073 263.606L840.072 263.608C838.353 266.631 837.493 269.78 837.517 272.935L837.517 272.939C837.517 276.097 838.377 279.265 840.073 282.288C841.808 285.367 844.31 288.127 847.533 290.819C850.709 293.457 854.457 295.903 858.312 298.25C860.085 299.328 861.871 300.397 863.681 301.433L863.686 301.436C865.834 302.698 867.975 303.936 870.149 305.183L870.15 305.184L937.906 344.302C937.906 344.302 937.906 344.302 937.907 344.303C938.766 344.792 939.619 345.284 940.469 345.774C941.78 346.53 943.087 347.284 944.41 348.026L944.414 348.028C946.244 349.075 948.071 350.112 949.954 351.141C954.024 353.36 958.218 355.516 962.828 357.384C962.828 357.384 962.828 357.384 962.828 357.384L962.635 357.862C967.328 359.749 972.197 361.212 977.657 362.235L1124.26 301.757ZM1124.26 301.757L1124.29 301.779C1123.93 301.986 1123.57 302.194 1123.22 302.402C1121.62 303.337 1120.01 304.274 1118.39 305.199L1118.39 305.2L1050.64 344.319L1050.64 344.32C1048.48 345.582 1046.31 346.82 1044.14 348.06L1044.14 348.06C1042.31 349.106 1040.48 350.136 1038.61 351.157L1124.26 301.757ZM1130.47 247.195C1134.34 249.545 1138.11 251.992 1141.35 254.67C1144.58 257.388 1147.14 260.195 1148.92 263.345C1150.67 266.439 1151.54 269.701 1151.54 272.947C1151.54 276.193 1150.68 279.431 1148.92 282.525C1147.13 285.675 1144.61 288.481 1141.35 291.199L1130.47 247.195ZM1130.47 247.195C1128.71 246.115 1126.92 245.044 1125.1 244.005L1130.47 247.195Z" fill="#3D4F5B" stroke="black" stroke-width="1.03221"/>
<path d="M996.119 86.4003L934.169 50L913.982 61.8437V129.678C913.982 155.327 924.609 185.595 942.437 210.822L975.932 258.197L1009.43 250.177C1012.61 249.407 1015.54 248.215 1018.24 246.626L1038.45 234.782C1050.89 227.433 1058.09 211.691 1058.09 190.635V122.801L996.143 86.4003H996.119ZM1000.54 181.125L988.57 188.152L976.602 167.097L1002.35 151.951L1014.32 173.031L1000.51 181.15L1000.54 181.125Z" fill="black"/>
<path d="M913.982 61.8437L934.169 50L1058.04 122.776L1037.86 134.644L913.982 61.8437Z" fill="#D9FF6D" stroke="black" stroke-width="2.48296" stroke-miterlimit="10"/>
<path d="M975.932 98.2687L913.982 61.8436V129.678C913.982 155.327 924.609 185.595 942.437 210.821L975.932 258.196L1009.43 250.176C1027.26 245.906 1037.88 228.128 1037.88 202.479V134.644L975.932 98.2687ZM980.352 192.994L968.384 200.021L937.496 145.594L949.464 138.567L968.384 171.913L1002.38 151.95L1014.34 173.031L980.352 192.994Z" fill="#D9FF6D" stroke="black" stroke-width="2.48296" stroke-miterlimit="10"/>
<path d="M996.119 86.4003L934.169 50L913.982 61.8437V129.678C913.982 155.327 924.609 185.595 942.437 210.822L975.932 258.197L1009.43 250.177C1012.61 249.407 1015.54 248.215 1018.24 246.626L1038.45 234.782C1050.89 227.433 1058.09 211.691 1058.09 190.635V122.801L996.143 86.4003H996.119ZM1000.54 181.125L988.57 188.152L976.602 167.097L1002.35 151.951L1014.32 173.031L1000.51 181.15L1000.54 181.125Z" stroke="black" stroke-width="2.48296" stroke-miterlimit="10"/>
<path d="M165.984 492.294L80.8997 443.168C64.7548 433.845 66.7799 417.565 85.4183 406.805L161.457 362.905C180.096 352.144 208.296 350.969 224.441 360.292L309.525 409.417C325.67 418.741 323.645 435.021 305.006 445.781L228.967 489.681C210.329 500.442 182.129 501.617 165.984 492.294Z" fill="#2D3D4F" stroke="#142131" stroke-width="2.56846" stroke-miterlimit="10"/>
<path d="M185.381 446.28L169.463 437.09L196.738 421.344" stroke="#D9FF6D" stroke-width="2.51549" stroke-linecap="round"/>
<path d="M186.814 405.192C187.884 403.717 189.446 402.378 191.411 401.252C194.445 399.501 198.316 398.31 202.534 397.832C206.751 397.354 211.126 397.609 215.105 398.565C219.084 399.521 222.489 401.136 224.888 403.205C227.287 405.273 228.574 407.703 228.585 410.187C228.596 412.671 227.331 415.097 224.95 417.158C222.569 419.22 219.178 420.825 215.208 421.769C211.237 422.714 206.864 422.956 202.643 422.465C198.421 421.974 194.54 420.773 191.49 419.012C189.514 417.88 187.941 416.537 186.858 415.059L181.218 415.05L176.077 412.083L170.963 415.035L165.823 412.068L160.709 415.02L152.142 410.074L160.665 405.154L186.814 405.192Z" stroke="#D9FF6D" stroke-width="2.51549" stroke-linecap="round" stroke-linejoin="round"/>
<path d="M212.821 411.644C214.241 412.463 216.536 412.467 217.949 411.651C219.361 410.836 219.355 409.511 217.936 408.691C216.516 407.872 214.221 407.869 212.808 408.684C211.396 409.499 211.402 410.824 212.821 411.644Z" fill="#D9FF6D"/>
<line x1="1.25774" y1="-1.25774" x2="45.7147" y2="-1.25774" transform="matrix(0.866044 0.499967 -0.866044 0.499967 165.691 382.087)" stroke="#D9FF6D" stroke-width="2.51549" stroke-linecap="round"/>
<path d="M222.401 452.411L195.871 437.095L169.475 452.333L196.006 467.649L222.401 452.411Z" fill="#2D3D4F"/>
<path d="M215.239 441.229C211.402 439.014 206.519 437.502 201.208 436.885C195.897 436.268 190.396 436.572 185.4 437.761C180.405 438.949 176.14 440.968 173.144 443.561C170.149 446.155 168.557 449.207 168.571 452.332C168.585 455.457 170.203 458.513 173.222 461.116C176.24 463.719 180.523 465.75 185.529 466.953C190.535 468.156 196.039 468.477 201.345 467.875C206.651 467.273 211.521 465.776 215.338 463.572C220.444 460.613 223.301 456.6 223.282 452.413C223.264 448.225 220.372 444.204 215.239 441.229ZM208.549 455.753L187.225 455.442C186.677 455.432 186.157 455.3 185.772 455.075C185.579 454.967 185.426 454.838 185.32 454.696C185.214 454.554 185.157 454.401 185.154 454.247L184.885 448.091C184.865 447.928 184.902 447.764 184.995 447.609C185.088 447.455 185.233 447.313 185.424 447.192C185.614 447.071 185.845 446.974 186.103 446.906C186.361 446.838 186.64 446.801 186.924 446.797C187.207 446.793 187.49 446.822 187.754 446.883C188.018 446.944 188.258 447.034 188.461 447.15C188.663 447.265 188.823 447.403 188.931 447.555C189.039 447.707 189.093 447.869 189.09 448.033L189.316 453.028L208.65 453.325C209.192 453.348 209.7 453.49 210.066 453.722C210.433 453.955 210.63 454.26 210.617 454.573C210.604 454.887 210.382 455.184 209.996 455.404C209.611 455.624 209.092 455.749 208.549 455.753Z" fill="#D9FF6D"/>
<path d="M480.949 305.243L395.896 256.136C379.757 246.816 381.781 230.542 400.413 219.785L476.424 175.901C495.055 165.145 523.245 163.97 539.384 173.29L624.437 222.397C640.576 231.717 638.551 247.991 619.92 258.747L543.909 302.631C525.277 313.388 497.087 314.563 480.949 305.243Z" fill="#2D3D4F" stroke="#142131" stroke-width="2.56872" stroke-miterlimit="10"/>
<g clip-path="url(#clip0_1557_459)">
<path d="M499.618 208.428C499.393 208.297 499.246 208.122 499.213 207.929C499.14 207.474 499.721 207.066 500.503 207.021C502.131 206.92 503.801 206.86 505.471 206.841C507.169 206.821 508.902 206.847 510.641 206.91C512.395 206.972 514.198 207.088 515.994 207.24C517.81 207.397 519.676 207.598 521.527 207.84C523.379 208.075 525.271 208.391 527.142 208.777C528.977 209.159 530.833 209.619 532.652 210.148C534.443 210.67 536.233 211.265 537.979 211.918C539.704 212.567 541.422 213.286 543.082 214.055C544.727 214.823 546.351 215.653 547.896 216.528C549.441 217.403 550.956 218.336 552.372 219.302C553.802 220.277 555.175 221.3 556.455 222.353C556.912 222.724 556.749 223.242 556.092 223.507C555.442 223.776 554.548 223.69 554.098 223.314C552.868 222.306 551.552 221.315 550.178 220.382C548.811 219.452 547.366 218.552 545.878 217.718C544.396 216.879 542.843 216.081 541.261 215.35C539.686 214.614 538.046 213.932 536.392 213.307C534.73 212.687 533.032 212.119 531.333 211.626C529.613 211.129 527.871 210.693 526.142 210.331C524.392 209.965 522.613 209.673 520.875 209.455C519.081 209.22 517.3 209.027 515.547 208.874C513.823 208.73 512.105 208.622 510.422 208.559C508.768 208.496 507.113 208.474 505.5 208.493C503.915 208.512 502.323 208.568 500.781 208.661C500.34 208.687 499.922 208.594 499.633 208.427L499.618 208.428Z" fill="#D9FF6D"/>
<path d="M450.126 237.447C449.661 237.178 449.574 236.748 449.947 236.418C450.795 235.66 451.622 234.882 452.405 234.111C453.197 233.337 453.959 232.538 454.694 231.74C455.421 230.945 456.121 230.126 456.792 229.307C457.455 228.492 458.098 227.657 458.705 226.818C459.312 225.971 459.891 225.115 460.42 224.272C460.949 223.495 461.533 222.742 462.153 222.018C462.781 221.289 463.471 220.573 464.205 219.889C464.938 219.197 465.742 218.521 466.574 217.878C467.413 217.23 468.316 216.595 469.247 215.992C470.192 215.39 471.194 214.803 472.224 214.249C473.261 213.691 474.369 213.158 475.49 212.657C476.633 212.152 477.819 211.671 479.032 211.231C480.259 210.783 481.536 210.364 482.841 209.985C484.153 209.603 485.521 209.244 486.903 208.927C488.307 208.605 489.752 208.316 491.212 208.068C492.685 207.82 494.208 207.601 495.752 207.426C496.528 207.337 497.277 207.629 497.421 208.075C497.564 208.522 497.047 208.959 496.272 209.048C494.813 209.214 493.376 209.417 491.988 209.656C490.614 209.887 489.253 210.16 487.928 210.46C486.625 210.757 485.342 211.09 484.108 211.452C482.896 211.81 481.691 212.205 480.535 212.62C479.4 213.03 478.279 213.482 477.215 213.958C476.165 214.426 475.128 214.926 474.156 215.447C473.19 215.964 472.253 216.513 471.365 217.083C470.484 217.648 469.638 218.242 468.856 218.848C468.074 219.455 467.328 220.089 466.631 220.736C465.941 221.379 465.3 222.05 464.709 222.733C464.125 223.412 463.584 224.116 463.092 224.831C462.555 225.678 461.962 226.558 461.333 227.426C460.711 228.29 460.054 229.15 459.369 229.985C458.684 230.829 457.956 231.673 457.207 232.488C456.458 233.311 455.673 234.131 454.86 234.926C454.055 235.716 453.2 236.52 452.33 237.298C451.899 237.686 451.01 237.8 450.345 237.557C450.26 237.524 450.183 237.488 450.112 237.447L450.126 237.447Z" fill="#D9FF6D"/>
<path d="M565.267 237.47C565.091 237.368 564.958 237.233 564.896 237.082C564.393 235.85 563.776 234.609 563.052 233.399C562.349 232.208 561.519 231.018 560.603 229.853C559.7 228.713 558.692 227.577 557.604 226.478C557.211 226.086 557.452 225.58 558.137 225.348C558.822 225.115 559.701 225.251 560.087 225.639C561.216 226.779 562.267 227.956 563.204 229.149C564.155 230.359 565.021 231.602 565.751 232.842C566.51 234.106 567.147 235.399 567.671 236.685C567.85 237.127 567.369 237.576 566.6 237.686C566.095 237.758 565.592 237.666 565.253 237.47L565.267 237.47Z" fill="#D9FF6D"/>
<path d="M477.418 219.297C477.418 219.297 477.376 219.273 477.355 219.26C476.841 218.922 476.897 218.401 477.497 218.095C478.455 217.607 479.463 217.14 480.498 216.705C481.541 216.266 482.633 215.855 483.746 215.473C484.873 215.091 486.043 214.734 487.226 214.409C488.423 214.084 489.67 213.788 490.924 213.528C492.199 213.265 493.509 213.029 494.825 212.839C496.17 212.641 497.544 212.475 498.923 212.347C500.317 212.218 501.754 212.122 503.203 212.067C504.653 212.011 506.145 211.989 507.644 212.003C509.164 212.021 510.705 212.076 512.246 212.173C513.8 212.269 515.397 212.406 516.986 212.579C518.596 212.757 520.235 212.976 521.858 213.236C523.482 213.488 525.133 213.805 526.755 214.188C528.349 214.562 529.956 215.003 531.513 215.497C533.055 215.982 534.59 216.538 536.082 217.134C537.552 217.727 539.014 218.381 540.412 219.073C541.005 219.366 541.07 219.89 540.554 220.237C540.038 220.584 539.128 220.628 538.535 220.336C537.208 219.677 535.823 219.059 534.424 218.499C533.017 217.935 531.567 217.412 530.109 216.95C528.645 216.485 527.137 216.068 525.642 215.718C524.126 215.363 522.588 215.062 521.064 214.826C519.504 214.579 517.937 214.368 516.405 214.202C514.901 214.036 513.382 213.903 511.898 213.814C510.443 213.726 508.973 213.671 507.546 213.656C506.132 213.642 504.725 213.656 503.361 213.71C502.003 213.761 500.652 213.849 499.344 213.969C498.056 214.085 496.769 214.242 495.502 214.428C494.271 214.609 493.046 214.828 491.857 215.075C490.688 215.317 489.534 215.593 488.415 215.897C487.317 216.197 486.226 216.525 485.178 216.886C484.143 217.239 483.129 217.629 482.165 218.031C481.201 218.432 480.258 218.871 479.379 219.322C478.8 219.615 477.947 219.602 477.418 219.297Z" fill="#D9FF6D"/>
<path d="M451.028 244.346C450.534 244.061 450.469 243.593 450.92 243.259C451.688 242.686 452.448 242.092 453.18 241.507C454.084 240.781 454.982 240.027 455.844 239.261C456.698 238.507 457.532 237.732 458.337 236.95C459.136 236.171 459.913 235.372 460.662 234.574C461.403 233.771 462.131 232.952 462.809 232.137C463.494 231.318 464.158 230.479 464.779 229.648C465.401 228.808 466.001 227.957 466.558 227.106C467.043 226.402 467.592 225.719 468.175 225.057C468.759 224.402 469.392 223.752 470.075 223.129C470.757 222.507 471.497 221.901 472.278 221.32C472.766 220.957 473.669 220.884 474.29 221.16C474.912 221.428 475.026 221.957 474.539 222.319C473.815 222.86 473.133 223.424 472.5 224.001C471.868 224.578 471.271 225.183 470.723 225.793C470.176 226.41 469.678 227.048 469.229 227.689C468.672 228.549 468.057 229.425 467.414 230.285C466.778 231.14 466.1 231.996 465.4 232.84C464.701 233.675 463.966 234.515 463.202 235.338C462.446 236.158 461.633 236.977 460.813 237.776C459.987 238.579 459.131 239.374 458.255 240.149C457.364 240.932 456.452 241.711 455.52 242.453C454.766 243.059 453.984 243.665 453.203 244.255C452.715 244.618 451.812 244.691 451.19 244.415C451.148 244.39 451.091 244.366 451.049 244.341L451.028 244.346Z" fill="#D9FF6D"/>
<path d="M552.696 261.267C552.294 261.035 552.163 260.679 552.401 260.354C552.596 260.095 552.792 259.836 552.987 259.577C553.947 258.289 554.866 256.969 555.735 255.653C556.437 254.571 557.041 253.457 557.516 252.352C557.707 251.908 558.484 251.63 559.25 251.734C560.016 251.837 560.487 252.282 560.297 252.726C559.799 253.901 559.166 255.081 558.413 256.224C557.537 257.56 556.59 258.905 555.621 260.214C555.426 260.481 555.224 260.744 555.022 261.008C554.704 261.427 553.856 261.623 553.134 261.446C552.964 261.406 552.815 261.345 552.695 261.276L552.696 261.267Z" fill="#D9FF6D"/>
<path d="M559.353 246.3C559.1 246.153 558.939 245.945 558.942 245.715C558.955 244.632 558.869 243.526 558.677 242.431C558.484 241.354 558.192 240.268 557.808 239.203C557.43 238.151 556.953 237.091 556.384 236.051C555.828 235.028 555.173 234.006 554.447 233.008C553.727 232.023 552.908 231.046 552.032 230.102C551.156 229.167 550.208 228.24 549.189 227.354C548.177 226.472 547.094 225.607 545.96 224.796C545.474 224.441 545.573 223.92 546.195 223.634C546.816 223.349 547.711 223.394 548.204 223.753C549.387 224.609 550.526 225.507 551.58 226.429C552.641 227.356 553.645 228.324 554.557 229.304C555.482 230.293 556.329 231.319 557.083 232.349C557.852 233.396 558.535 234.468 559.118 235.54C559.715 236.628 560.213 237.741 560.611 238.847C561.016 239.973 561.329 241.112 561.521 242.247C561.72 243.403 561.819 244.567 561.804 245.716C561.799 246.175 561.155 246.547 560.359 246.55C559.961 246.552 559.607 246.463 559.346 246.312L559.353 246.3Z" fill="#D9FF6D"/>
<path d="M508.13 218.621C507.848 218.458 507.687 218.233 507.726 217.983C507.781 217.527 508.468 217.18 509.256 217.205C510.577 217.249 511.918 217.33 513.245 217.443C514.601 217.556 515.97 217.711 517.339 217.898C518.722 218.085 520.133 218.313 521.522 218.569C522.918 218.822 524.321 219.136 525.702 219.495C527.061 219.851 528.413 220.259 529.722 220.709C531.016 221.151 532.303 221.654 533.539 222.186C534.769 222.714 535.976 223.295 537.141 223.902C538.291 224.508 539.42 225.159 540.484 225.832C541.549 226.512 542.577 227.222 543.541 227.96C544.505 228.698 545.426 229.469 546.269 230.262C547.125 231.054 547.925 231.879 548.646 232.716C549.382 233.562 550.053 234.429 550.646 235.3C550.932 235.721 550.571 236.207 549.837 236.378C549.103 236.549 548.267 236.348 547.981 235.926C547.423 235.1 546.78 234.274 546.087 233.478C545.4 232.685 544.636 231.905 543.828 231.149C543.02 230.402 542.149 229.668 541.241 228.97C540.333 228.273 539.361 227.596 538.353 226.956C537.345 226.316 536.28 225.702 535.193 225.132C534.099 224.558 532.955 224.013 531.811 223.518C530.645 223.018 529.443 222.547 528.226 222.134C527.002 221.717 525.75 221.332 524.482 221.005C523.208 220.674 521.904 220.385 520.614 220.144C519.289 219.899 517.956 219.683 516.644 219.504C515.36 219.333 514.062 219.187 512.785 219.077C511.536 218.968 510.279 218.895 509.044 218.851C508.682 218.84 508.37 218.751 508.13 218.613L508.13 218.621Z" fill="#D9FF6D"/>
<path d="M453.262 249.767C452.74 249.466 452.711 248.978 453.198 248.648C454.222 247.959 455.226 247.249 456.186 246.54C457.147 245.83 458.108 245.096 459.027 244.363C459.952 243.625 460.857 242.866 461.711 242.12C462.573 241.362 463.421 240.588 464.234 239.809C465.046 239.031 465.837 238.232 466.586 237.441C467.335 236.651 468.069 235.836 468.776 235.013C469.468 234.198 470.153 233.362 470.789 232.531C471.431 231.696 472.053 230.84 472.625 229.997C473.073 229.372 473.564 228.763 474.097 228.17C474.63 227.586 475.212 227.013 475.837 226.465C476.455 225.921 477.129 225.385 477.832 224.874C478.527 224.367 479.286 223.871 480.074 223.409C480.861 222.946 481.698 222.496 482.555 222.074C483.413 221.652 484.334 221.25 485.255 220.881C486.184 220.508 487.168 220.16 488.16 219.84C489.165 219.52 490.206 219.22 491.268 218.958C492.33 218.695 493.441 218.452 494.552 218.243C495.677 218.033 496.837 217.852 498.011 217.703C499.199 217.555 500.416 217.431 501.624 217.344C502.414 217.287 503.113 217.608 503.2 218.063C503.286 218.518 502.72 218.927 501.931 218.983C500.814 219.066 499.684 219.173 498.588 219.317C497.513 219.457 496.439 219.621 495.399 219.814C494.374 220.007 493.355 220.229 492.379 220.475C491.409 220.716 490.44 220.991 489.527 221.282C488.607 221.577 487.715 221.897 486.858 222.236C486.002 222.576 485.173 222.941 484.387 223.329C483.593 223.714 482.835 224.127 482.112 224.553C481.382 224.982 480.695 225.436 480.057 225.894C479.412 226.364 478.787 226.855 478.22 227.353C477.653 227.852 477.113 228.383 476.631 228.923C476.134 229.462 475.686 230.022 475.281 230.589C474.702 231.445 474.066 232.317 473.409 233.177C472.752 234.028 472.06 234.884 471.346 235.72C470.625 236.559 469.876 237.399 469.106 238.21C468.335 239.021 467.522 239.841 466.688 240.64C465.862 241.435 464.992 242.23 464.102 243.005C463.225 243.771 462.299 244.542 461.352 245.308C460.412 246.063 459.429 246.817 458.44 247.543C457.451 248.269 456.419 248.995 455.373 249.705C454.857 250.052 453.954 250.101 453.354 249.804C453.326 249.787 453.297 249.771 453.269 249.755L453.262 249.767Z" fill="#D9FF6D"/>
<path d="M538.268 268.082C537.824 267.826 537.722 267.42 538.053 267.091C538.6 266.539 539.139 265.983 539.672 265.423C540.759 264.274 541.825 263.097 542.827 261.916C543.837 260.731 544.825 259.525 545.735 258.332C546.659 257.122 547.548 255.892 548.38 254.671C548.981 253.795 549.497 252.886 549.913 251.97C550.315 251.078 550.639 250.158 550.856 249.243C551.073 248.344 551.213 247.425 551.26 246.51C551.306 245.612 551.261 244.701 551.144 243.791C551.02 242.902 550.818 242 550.531 241.108C550.258 240.231 549.892 239.351 549.463 238.483C549.248 238.045 549.68 237.584 550.442 237.454C551.203 237.324 551.996 237.575 552.211 238.004C552.668 238.921 553.047 239.859 553.341 240.788C553.642 241.73 553.857 242.689 553.988 243.64C554.118 244.607 554.162 245.583 554.122 246.535C554.075 247.507 553.934 248.492 553.695 249.453C553.456 250.43 553.117 251.415 552.678 252.369C552.233 253.351 551.681 254.321 551.044 255.258C550.19 256.501 549.287 257.755 548.348 258.981C547.417 260.195 546.421 261.421 545.39 262.627C544.359 263.825 543.279 265.027 542.177 266.192C541.637 266.764 541.083 267.328 540.529 267.893C540.134 268.292 539.258 268.431 538.572 268.208C538.459 268.168 538.36 268.127 538.268 268.074L538.268 268.082Z" fill="#D9FF6D"/>
<path d="M456.645 254.23C456.109 253.921 456.087 253.421 456.616 253.09C457.433 252.57 458.242 252.046 459.03 251.51C460.04 250.829 461.044 250.119 462.026 249.406C462.994 248.692 463.962 247.962 464.873 247.232C465.791 246.499 466.696 245.748 467.565 244.994C468.434 244.24 469.296 243.466 470.108 242.695C470.935 241.917 471.733 241.122 472.496 240.34C473.259 239.557 474.001 238.746 474.714 237.927C475.427 237.116 476.113 236.289 476.769 235.462C477.426 234.627 478.062 233.779 478.648 232.944C479.045 232.397 479.478 231.871 479.953 231.368C480.421 230.87 480.939 230.376 481.492 229.902C482.045 229.428 482.633 228.974 483.249 228.545C483.865 228.116 484.531 227.699 485.218 227.303C485.776 226.98 486.686 226.977 487.236 227.294C487.793 227.616 487.772 228.141 487.214 228.463C486.599 228.818 485.99 229.194 485.431 229.582C484.872 229.97 484.342 230.382 483.846 230.807C483.351 231.231 482.883 231.68 482.459 232.129C482.034 232.586 481.637 233.059 481.283 233.549C480.69 234.396 480.033 235.264 479.354 236.12C478.683 236.963 477.976 237.819 477.248 238.647C476.513 239.486 475.75 240.318 474.973 241.117C474.196 241.924 473.368 242.735 472.527 243.53C471.694 244.321 470.817 245.112 469.919 245.883C469.036 246.653 468.096 247.424 467.163 248.174C466.223 248.921 465.241 249.667 464.251 250.401C463.254 251.131 462.222 251.857 461.184 252.555C460.374 253.103 459.55 253.644 458.713 254.177C458.176 254.519 457.273 254.543 456.694 254.242C456.68 254.234 456.659 254.222 456.645 254.214L456.645 254.23Z" fill="#D9FF6D"/>
<path d="M525.429 271.65C524.956 271.377 524.869 270.938 525.264 270.604C525.53 270.378 525.788 270.155 526.054 269.929C527.232 268.915 528.381 267.868 529.496 266.818C530.61 265.768 531.696 264.693 532.718 263.63C533.754 262.56 534.762 261.465 535.721 260.366C536.686 259.271 537.617 258.147 538.497 257.028C539.378 255.917 540.238 254.769 541.048 253.618C541.539 252.919 541.967 252.199 542.317 251.484C542.66 250.781 542.939 250.05 543.133 249.319C543.333 248.601 543.456 247.87 543.522 247.14C543.588 246.426 543.576 245.692 543.507 244.966C543.437 244.249 543.304 243.528 543.107 242.811C542.917 242.106 542.656 241.394 542.338 240.69C542.027 239.998 541.652 239.302 541.227 238.627C540.809 237.957 540.32 237.286 539.795 236.636C539.271 235.986 538.682 235.349 538.057 234.732C537.433 234.115 536.758 233.511 536.048 232.936C535.331 232.357 534.57 231.794 533.781 231.264C532.985 230.73 532.153 230.217 531.293 229.736C530.425 229.252 529.528 228.792 528.603 228.365C527.671 227.935 526.709 227.537 525.734 227.172C524.751 226.802 523.732 226.47 522.713 226.171C521.679 225.872 520.617 225.606 519.554 225.38C518.47 225.151 517.379 224.942 516.294 224.771C515.238 224.599 514.16 224.455 513.102 224.341C512.067 224.23 511.023 224.14 509.994 224.083C508.986 224.03 507.971 223.997 506.976 223.993C505.996 223.989 505.022 224.013 504.048 224.063C503.103 224.112 502.157 224.185 501.232 224.288C500.329 224.386 499.425 224.508 498.535 224.656C497.66 224.803 496.798 224.974 495.972 225.167C495.145 225.359 494.326 225.571 493.541 225.812C492.771 226.045 492.001 226.303 491.258 226.585C490.594 226.837 489.701 226.726 489.279 226.351C488.85 225.971 489.049 225.458 489.712 225.205C490.533 224.894 491.382 224.607 492.245 224.354C493.108 224.092 494.013 223.854 494.932 223.641C495.844 223.432 496.798 223.24 497.766 223.08C498.742 222.916 499.738 222.78 500.741 222.674C501.758 222.567 502.796 222.481 503.827 222.431C504.879 222.378 505.952 222.353 507.018 222.357C508.097 222.36 509.198 222.393 510.298 222.458C511.413 222.523 512.541 222.613 513.655 222.735C514.79 222.862 515.939 223.013 517.074 223.197C518.229 223.385 519.399 223.605 520.546 223.847C521.701 224.092 522.863 224.382 523.988 224.71C525.107 225.033 526.21 225.398 527.278 225.799C528.332 226.193 529.378 226.623 530.381 227.087C531.377 227.546 532.344 228.038 533.275 228.559C534.192 229.072 535.095 229.626 535.94 230.197C536.778 230.763 537.595 231.367 538.354 231.987C539.107 232.603 539.838 233.248 540.504 233.906C541.171 234.563 541.788 235.25 542.354 235.941C542.921 236.64 543.431 237.355 543.884 238.071C544.336 238.795 544.739 239.54 545.071 240.285C545.41 241.042 545.684 241.804 545.895 242.562C546.113 243.332 546.252 244.114 546.328 244.885C546.403 245.672 546.415 246.464 546.348 247.235C546.282 248.023 546.137 248.815 545.921 249.591C545.705 250.383 545.404 251.176 545.032 251.936C544.653 252.717 544.189 253.498 543.654 254.255C542.829 255.423 541.955 256.587 541.06 257.723C540.158 258.863 539.206 260.007 538.233 261.122C537.253 262.242 536.223 263.357 535.173 264.444C534.129 265.527 533.022 266.623 531.886 267.694C530.757 268.761 529.579 269.824 528.387 270.862C528.114 271.093 527.855 271.324 527.59 271.55C527.144 271.93 526.248 272.032 525.598 271.78C525.52 271.752 525.449 271.719 525.386 271.683L525.429 271.65Z" fill="#D9FF6D"/>
<path d="M460.794 258.138C460.251 257.824 460.243 257.316 460.78 256.989C461.102 256.795 461.417 256.597 461.732 256.399C462.785 255.742 463.83 255.057 464.848 254.372C465.858 253.691 466.854 252.986 467.829 252.277C468.804 251.567 469.758 250.837 470.669 250.116C471.587 249.39 472.499 248.644 473.375 247.894C474.237 247.152 475.099 246.386 475.925 245.616C476.737 244.854 477.55 244.067 478.327 243.276C479.104 242.486 479.867 241.679 480.573 240.888C481.286 240.094 481.993 239.271 482.664 238.443C483.328 237.621 483.977 236.781 484.591 235.954C484.931 235.506 485.299 235.066 485.702 234.654C486.098 234.238 486.543 233.834 487.002 233.447C487.469 233.063 487.964 232.688 488.494 232.333C489.017 231.982 489.575 231.644 490.155 231.326C490.727 231.012 491.342 230.706 491.984 230.424C492.613 230.143 493.284 229.877 493.955 229.637C494.64 229.396 495.346 229.167 496.066 228.964C496.779 228.764 497.534 228.58 498.296 228.417C499.059 228.254 499.849 228.115 500.646 227.997C501.443 227.879 502.276 227.781 503.093 227.708C503.925 227.635 504.779 227.582 505.624 227.558C506.477 227.53 507.351 227.531 508.224 227.547C509.098 227.564 509.993 227.61 510.88 227.684C511.774 227.754 512.682 227.849 513.583 227.964C514.349 228.067 514.826 228.508 514.636 228.952C514.446 229.396 513.675 229.678 512.909 229.574C512.094 229.467 511.271 229.38 510.461 229.318C509.659 229.26 508.85 229.214 508.076 229.197C507.295 229.175 506.513 229.179 505.746 229.206C505 229.23 504.239 229.278 503.492 229.343C502.767 229.403 502.034 229.492 501.329 229.598C500.632 229.699 499.934 229.825 499.265 229.967C498.595 230.11 497.932 230.272 497.305 230.447C496.678 230.622 496.05 230.821 495.451 231.037C494.858 231.249 494.273 231.481 493.723 231.725C493.166 231.973 492.623 232.238 492.122 232.511C491.614 232.788 491.127 233.085 490.662 233.395C490.196 233.704 489.759 234.03 489.357 234.368C488.947 234.71 488.559 235.064 488.207 235.431C487.854 235.797 487.523 236.184 487.233 236.579C486.619 237.422 485.948 238.282 485.262 239.126C484.57 239.974 483.849 240.813 483.128 241.628C482.401 242.439 481.623 243.263 480.832 244.078C480.033 244.889 479.206 245.692 478.373 246.467C477.524 247.258 476.641 248.045 475.758 248.799C474.86 249.569 473.934 250.332 472.994 251.07C472.062 251.812 471.079 252.55 470.083 253.28C469.093 254.006 468.061 254.732 467.03 255.425C465.991 256.131 464.909 256.829 463.843 257.502C463.52 257.704 463.198 257.906 462.869 258.104C462.318 258.439 461.422 258.459 460.844 258.15C460.837 258.146 460.823 258.137 460.816 258.133L460.794 258.138Z" fill="#D9FF6D"/>
<path d="M515.054 272.452C514.561 272.167 514.495 271.708 514.933 271.374C515.313 271.081 515.693 270.78 516.073 270.487C517.25 269.556 518.398 268.608 519.504 267.668C520.61 266.72 521.702 265.748 522.744 264.771C523.794 263.791 524.815 262.794 525.793 261.806C526.772 260.809 527.729 259.793 528.644 258.768C529.559 257.743 530.46 256.701 531.297 255.664C532.141 254.623 532.971 253.558 533.745 252.5C534.128 251.978 534.461 251.435 534.745 250.897C535.021 250.363 535.241 249.812 535.412 249.266C535.582 248.728 535.695 248.174 535.759 247.616C535.814 247.16 536.494 246.809 537.282 246.834C538.07 246.86 538.662 247.251 538.614 247.702C538.535 248.318 538.407 248.929 538.229 249.529C538.043 250.141 537.794 250.749 537.489 251.341C537.183 251.941 536.806 252.541 536.379 253.129C535.585 254.207 534.754 255.289 533.888 256.351C533.03 257.408 532.122 258.47 531.185 259.508C530.249 260.545 529.277 261.587 528.284 262.6C527.291 263.613 526.241 264.626 525.177 265.623C524.114 266.611 523 267.604 521.873 268.573C520.753 269.529 519.583 270.497 518.385 271.442C517.997 271.747 517.617 272.048 517.222 272.349C516.742 272.716 515.846 272.793 515.217 272.529C515.16 272.505 515.111 272.476 515.062 272.448L515.054 272.452Z" fill="#D9FF6D"/>
<path d="M535.958 244.781C535.746 244.659 535.599 244.499 535.559 244.311C535.43 243.774 535.252 243.225 535.046 242.685C534.832 242.157 534.569 241.616 534.263 241.093C533.964 240.573 533.622 240.054 533.231 239.547C532.846 239.044 532.426 238.545 531.971 238.059C531.515 237.581 531.023 237.108 530.489 236.65C529.962 236.197 529.399 235.749 528.808 235.333C528.216 234.909 527.589 234.497 526.94 234.114C526.285 233.727 525.6 233.357 524.901 233.011C524.195 232.662 523.46 232.337 522.711 232.036C521.955 231.732 521.17 231.452 520.391 231.201C519.592 230.946 518.763 230.716 517.942 230.514C517.212 230.341 516.884 229.854 517.195 229.43C517.513 229.011 518.354 228.81 519.083 228.984C519.997 229.205 520.917 229.464 521.809 229.747C522.679 230.027 523.542 230.335 524.383 230.672C525.21 231.001 526.016 231.366 526.792 231.749C527.562 232.127 528.31 232.534 529.022 232.953C529.727 233.377 530.411 233.821 531.059 234.286C531.699 234.747 532.318 235.228 532.888 235.722C533.464 236.22 533.998 236.734 534.496 237.253C534.993 237.78 535.455 238.32 535.868 238.863C536.28 239.415 536.664 239.984 536.991 240.544C537.325 241.117 537.609 241.702 537.843 242.284C538.084 242.877 538.276 243.475 538.41 244.065C538.518 244.516 537.966 244.941 537.177 245.005C536.714 245.044 536.268 244.952 535.965 244.777L535.958 244.781Z" fill="#D9FF6D"/>
<path d="M481.915 249.569C481.456 249.304 481.369 248.882 481.721 248.549C482.541 247.791 483.36 247.016 484.13 246.238C484.907 245.464 485.663 244.669 486.397 243.879C487.132 243.08 487.845 242.269 488.516 241.467C488.862 241.055 489.724 240.875 490.432 241.069C491.14 241.263 491.439 241.758 491.093 242.169C490.401 242.993 489.68 243.824 488.931 244.639C488.182 245.454 487.412 246.265 486.606 247.056C485.808 247.851 484.981 248.646 484.133 249.42C483.709 249.812 482.827 249.93 482.155 249.691C482.056 249.659 481.971 249.618 481.9 249.577L481.915 249.569Z" fill="#D9FF6D"/>
<path d="M465.353 261.769C464.803 261.452 464.802 260.939 465.353 260.613C466.105 260.162 466.849 259.708 467.58 259.246C468.618 258.598 469.656 257.917 470.674 257.232C471.684 256.551 472.68 255.854 473.641 255.152C474.616 254.443 475.562 253.726 476.473 253.012C476.947 252.641 477.843 252.555 478.479 252.823C479.108 253.087 479.251 253.608 478.777 253.979C477.852 254.708 476.876 255.443 475.88 256.173C474.898 256.886 473.88 257.604 472.848 258.297C471.81 259.003 470.743 259.692 469.683 260.361C468.938 260.832 468.172 261.298 467.406 261.757C466.848 262.087 465.946 262.103 465.381 261.785L465.36 261.773L465.353 261.769Z" fill="#D9FF6D"/>
<path d="M505.185 272.579C504.677 272.285 504.626 271.81 505.099 271.472C505.529 271.166 505.966 270.857 506.389 270.548C507.536 269.714 508.669 268.857 509.76 267.999C510.857 267.137 511.934 266.255 512.968 265.382C514.002 264.5 515.029 263.597 516.013 262.695C516.998 261.793 517.968 260.866 518.889 259.944C519.817 259.017 520.724 258.07 521.588 257.131C522.46 256.18 523.31 255.209 524.11 254.258C524.918 253.295 525.705 252.312 526.448 251.329C526.723 250.967 526.969 250.596 527.173 250.218C527.376 249.848 527.544 249.466 527.67 249.084C527.802 248.706 527.893 248.321 527.954 247.935C528.009 247.553 528.035 247.163 528.033 246.774C528.023 246.388 527.978 245.999 527.912 245.614C527.839 245.233 527.73 244.848 527.592 244.463C527.455 244.086 527.282 243.705 527.088 243.329C526.887 242.956 526.664 242.588 526.405 242.224C526.154 241.864 525.867 241.501 525.559 241.157C525.251 240.814 524.907 240.467 524.556 240.14C524.198 239.81 523.811 239.487 523.403 239.177C522.995 238.867 522.558 238.566 522.114 238.284C521.663 237.999 521.183 237.722 520.696 237.466C520.202 237.206 519.687 236.958 519.157 236.734C518.627 236.503 518.068 236.288 517.517 236.093C516.951 235.899 516.363 235.716 515.769 235.555C515.174 235.393 514.558 235.244 513.948 235.115C513.353 234.987 512.751 234.878 512.148 234.787C511.56 234.695 510.957 234.619 510.375 234.564C509.8 234.505 509.211 234.462 508.629 234.44C508.054 234.414 507.485 234.408 506.924 234.414C506.363 234.421 505.816 234.444 505.268 234.483C504.728 234.518 504.194 234.573 503.668 234.641C503.155 234.709 502.636 234.789 502.137 234.89C501.653 234.982 501.161 235.095 500.677 235.22C500.214 235.34 499.75 235.478 499.301 235.631C498.858 235.781 498.423 235.943 498.009 236.125C497.594 236.299 497.194 236.489 496.815 236.692C496.429 236.89 496.064 237.109 495.713 237.328C495.362 237.555 495.033 237.794 494.724 238.037C494.416 238.289 494.114 238.552 493.855 238.816C493.459 239.215 492.591 239.358 491.904 239.136C491.218 238.913 490.983 238.414 491.378 238.014C491.688 237.697 492.04 237.388 492.413 237.083C492.779 236.79 493.18 236.502 493.589 236.233C493.997 235.965 494.448 235.705 494.912 235.469C495.37 235.229 495.849 235.002 496.342 234.791C496.834 234.579 497.363 234.38 497.89 234.206C498.425 234.027 498.982 233.861 499.538 233.711C500.108 233.561 500.692 233.427 501.276 233.318C501.867 233.205 502.472 233.108 503.091 233.028C503.71 232.947 504.336 232.887 504.969 232.84C505.594 232.796 506.248 232.769 506.902 232.758C507.549 232.751 508.216 232.756 508.877 232.791C509.544 232.821 510.225 232.867 510.885 232.934C511.559 233.001 512.24 233.088 512.921 233.192C513.602 233.296 514.296 233.424 514.962 233.569C515.649 233.718 516.336 233.883 517.009 234.065C517.689 234.251 518.361 234.457 519.012 234.684C519.655 234.907 520.278 235.151 520.892 235.415C521.486 235.675 522.079 235.951 522.637 236.248C523.187 236.541 523.73 236.855 524.238 237.172C524.745 237.49 525.231 237.829 525.696 238.179C526.146 238.522 526.582 238.889 526.989 239.257C527.39 239.628 527.769 240.012 528.112 240.4C528.455 240.789 528.777 241.189 529.063 241.594C529.349 241.999 529.607 242.42 529.822 242.833C530.044 243.259 530.238 243.685 530.389 244.111C530.547 244.541 530.669 244.983 530.756 245.413C530.843 245.852 530.887 246.299 530.896 246.733C530.905 247.176 530.878 247.623 530.808 248.062C530.746 248.506 530.634 248.953 530.486 249.388C530.339 249.832 530.141 250.272 529.909 250.699C529.676 251.135 529.394 251.567 529.076 251.986C528.318 252.986 527.509 253.99 526.694 254.973C525.88 255.949 525.015 256.928 524.122 257.9C523.243 258.855 522.315 259.823 521.365 260.77C520.423 261.713 519.438 262.656 518.439 263.575C517.44 264.494 516.392 265.417 515.336 266.311C514.281 267.205 513.183 268.1 512.063 268.982C510.952 269.852 509.797 270.73 508.621 271.58C508.184 271.898 507.754 272.211 507.309 272.525C506.808 272.879 505.905 272.937 505.297 272.652C505.262 272.632 505.227 272.611 505.192 272.591L505.185 272.579Z" fill="#D9FF6D"/>
<path d="M471.006 264.736C470.456 264.418 470.456 263.906 471.007 263.579C471.83 263.088 472.639 262.588 473.441 262.085C474.472 261.432 475.503 260.764 476.506 260.087C477.502 259.414 478.491 258.721 479.444 258.032C480.405 257.34 481.351 256.622 482.262 255.917C483.188 255.195 484.085 254.466 484.946 253.749C485.829 253.011 486.691 252.261 487.503 251.523C488.336 250.765 489.149 250.003 489.925 249.245C490.716 248.471 491.479 247.689 492.206 246.919C492.94 246.137 493.661 245.338 494.346 244.544C495.03 243.749 495.701 242.939 496.336 242.124C496.524 241.885 496.733 241.651 496.956 241.432C497.179 241.214 497.416 241.004 497.681 240.802C497.947 240.6 498.226 240.406 498.513 240.224C498.799 240.043 499.114 239.869 499.435 239.708C499.75 239.551 500.086 239.397 500.436 239.252C500.778 239.112 501.142 238.983 501.513 238.867C501.884 238.75 502.269 238.642 502.661 238.546C503.046 238.454 503.444 238.371 503.85 238.299C504.256 238.228 504.676 238.165 505.089 238.122C505.508 238.075 505.935 238.04 506.369 238.018C506.802 237.996 507.243 237.986 507.676 237.988C508.124 237.99 508.571 238.009 509.011 238.032C509.458 238.059 509.905 238.102 510.352 238.153C510.806 238.209 511.26 238.273 511.699 238.353C512.153 238.433 512.6 238.525 513.046 238.634C513.492 238.743 513.945 238.864 514.384 238.994C514.823 239.123 515.254 239.273 515.678 239.435C516.096 239.594 516.498 239.76 516.887 239.943C517.268 240.122 517.642 240.313 518.002 240.513C518.348 240.712 518.701 240.916 519.01 241.136C519.327 241.352 519.637 241.58 519.918 241.809C520.376 242.18 520.22 242.693 519.577 242.967C518.927 243.236 518.033 243.149 517.576 242.786C517.337 242.59 517.084 242.403 516.816 242.223C516.548 242.044 516.266 241.873 515.977 241.706C515.688 241.539 515.377 241.385 515.059 241.234C514.742 241.084 514.409 240.95 514.07 240.82C513.724 240.686 513.377 240.569 513.016 240.459C512.648 240.346 512.28 240.249 511.911 240.16C511.543 240.072 511.182 239.995 510.813 239.931C510.445 239.867 510.09 239.811 509.728 239.768C509.367 239.724 509.012 239.693 508.657 239.67C508.302 239.646 507.954 239.636 507.606 239.633C507.258 239.63 506.917 239.64 506.576 239.658C506.248 239.675 505.907 239.701 505.587 239.74C505.26 239.774 504.94 239.82 504.633 239.875C504.327 239.929 504.021 239.992 503.722 240.067C503.422 240.142 503.137 240.217 502.852 240.309C502.567 240.4 502.303 240.496 502.039 240.599C501.774 240.703 501.531 240.819 501.281 240.939C501.038 241.063 500.802 241.191 500.587 241.331C500.365 241.467 500.15 241.616 499.957 241.768C499.763 241.921 499.576 242.086 499.404 242.251C499.231 242.424 499.065 242.601 498.921 242.782C498.271 243.613 497.579 244.444 496.88 245.255C496.181 246.066 495.439 246.885 494.69 247.684C493.949 248.47 493.164 249.273 492.359 250.064C491.568 250.838 490.741 251.617 489.893 252.391C489.067 253.145 488.184 253.907 487.279 254.666C486.403 255.399 485.485 256.15 484.538 256.884C483.612 257.605 482.644 258.335 481.662 259.049C480.687 259.758 479.677 260.463 478.659 261.148C477.635 261.838 476.582 262.527 475.53 263.192C474.706 263.708 473.883 264.215 473.038 264.719C472.48 265.05 471.578 265.066 471.013 264.748L470.992 264.736L471.006 264.736Z" fill="#D9FF6D"/>
<path d="M496.465 271.701C495.943 271.399 495.907 270.907 496.408 270.577L497.024 270.164C498.134 269.418 499.238 268.642 500.306 267.862C501.374 267.091 502.436 266.291 503.447 265.495C504.473 264.7 505.478 263.883 506.447 263.071C507.416 262.259 508.371 261.423 509.298 260.587C510.225 259.742 511.145 258.885 512.001 258.041C512.878 257.184 513.727 256.311 514.548 255.438C515.354 254.574 516.168 253.681 516.933 252.783C517.689 251.898 518.447 250.989 519.161 250.08C519.334 249.866 519.472 249.648 519.596 249.43C519.719 249.212 519.821 248.99 519.902 248.764C519.983 248.538 520.05 248.312 520.088 248.087C520.127 247.861 520.151 247.627 520.154 247.397C520.157 247.168 520.138 246.934 520.105 246.709C520.073 246.475 520.019 246.246 519.936 246.016C519.868 245.787 519.772 245.558 519.661 245.328C519.446 244.891 519.899 244.433 520.661 244.303C521.423 244.173 522.208 244.428 522.423 244.866C522.555 245.14 522.665 245.419 522.754 245.693C522.835 245.971 522.91 246.254 522.949 246.533C522.995 246.816 523.013 247.099 523.01 247.386C523.006 247.673 522.974 247.96 522.928 248.239C522.875 248.522 522.8 248.81 522.697 249.089C522.587 249.372 522.463 249.656 522.303 249.927C522.151 250.203 521.962 250.474 521.746 250.746C521.01 251.675 520.252 252.601 519.474 253.507C518.681 254.421 517.86 255.334 517.039 256.216C516.204 257.105 515.326 257.994 514.441 258.872C513.557 259.732 512.637 260.606 511.681 261.467C510.733 262.324 509.763 263.177 508.773 264.001C507.782 264.833 506.756 265.662 505.715 266.474C504.675 267.287 503.6 268.095 502.51 268.887C501.42 269.679 500.288 270.471 499.156 271.23L498.526 271.651C498.01 271.998 497.093 272.038 496.507 271.741C496.486 271.729 496.458 271.713 496.437 271.701L496.465 271.701Z" fill="#D9FF6D"/>
<path d="M477.01 267.5C476.467 267.186 476.459 266.669 477.01 266.343C477.79 265.876 478.556 265.402 479.315 264.923C480.339 264.275 481.364 263.61 482.338 262.95C483.334 262.277 484.308 261.592 485.247 260.92C486.186 260.24 487.119 259.538 488.03 258.833C488.926 258.137 489.823 257.415 490.692 256.694C491.553 255.977 492.408 255.239 493.227 254.506C494.046 253.772 494.858 253.018 495.642 252.265C496.051 251.873 496.934 251.738 497.606 251.969C498.278 252.2 498.499 252.708 498.089 253.099C497.298 253.865 496.465 254.632 495.624 255.386C494.791 256.136 493.915 256.886 493.032 257.623C492.149 258.361 491.23 259.095 490.312 259.804C489.387 260.526 488.426 261.243 487.473 261.932C486.519 262.621 485.523 263.318 484.506 264.003C483.51 264.676 482.471 265.357 481.426 266.017C480.653 266.504 479.865 266.992 479.071 267.467C478.52 267.801 477.61 267.813 477.046 267.495C477.039 267.491 477.032 267.487 477.025 267.483L477.01 267.5Z" fill="#D9FF6D"/>
<path d="M488.062 270.517C487.526 270.208 487.51 269.703 488.033 269.377C489.121 268.692 490.181 267.998 491.199 267.305C492.238 266.608 493.255 265.89 494.252 265.176C495.262 264.446 496.238 263.712 497.177 262.991C498.117 262.261 499.057 261.506 499.976 260.748C500.88 259.998 501.778 259.219 502.64 258.453C503.488 257.695 504.336 256.904 505.17 256.105C505.982 255.326 506.788 254.519 507.565 253.704C508.342 252.897 509.106 252.073 509.826 251.258C510.547 250.443 511.261 249.599 511.939 248.768C511.996 248.694 512.054 248.62 512.098 248.546C512.141 248.472 512.178 248.394 512.214 248.316C512.244 248.234 512.266 248.156 512.288 248.078C512.303 248.004 512.312 247.918 512.32 247.84C512.321 247.758 512.322 247.676 512.309 247.594C512.303 247.508 512.289 247.426 512.262 247.344C512.242 247.258 512.214 247.176 512.173 247.094C512.138 247.008 512.097 246.926 512.041 246.844C511.992 246.767 511.936 246.685 511.88 246.603C511.817 246.525 511.747 246.444 511.677 246.37C511.6 246.293 511.523 246.215 511.439 246.142C511.354 246.068 511.263 245.999 511.171 245.929C511.08 245.86 510.974 245.791 510.868 245.73C510.763 245.669 510.657 245.607 510.544 245.551C510.424 245.49 510.304 245.437 510.184 245.384C510.056 245.335 509.929 245.287 509.795 245.242C509.66 245.197 509.519 245.157 509.384 245.121C509.25 245.084 509.115 245.056 508.98 245.028C508.853 245.004 508.725 244.98 508.59 244.96C508.456 244.94 508.328 244.924 508.2 244.916C508.072 244.909 507.945 244.901 507.824 244.897C507.703 244.894 507.575 244.894 507.455 244.899C507.334 244.904 507.22 244.912 507.092 244.921C506.978 244.93 506.864 244.947 506.75 244.963C506.637 244.98 506.53 245.001 506.423 245.022C506.316 245.043 506.216 245.076 506.116 245.101C506.024 245.13 505.924 245.164 505.831 245.201C505.738 245.238 505.645 245.276 505.56 245.317C505.474 245.358 505.395 245.404 505.316 245.449C505.231 245.499 505.159 245.548 505.087 245.606C505.015 245.664 504.944 245.721 504.879 245.783C504.821 245.841 504.757 245.903 504.706 245.973C504.05 246.783 503.357 247.598 502.651 248.397C502.291 248.808 501.429 248.972 500.722 248.77C500.014 248.568 499.743 248.072 500.103 247.661C500.795 246.879 501.472 246.08 502.115 245.286C502.216 245.163 502.324 245.043 502.439 244.936C502.568 244.821 502.683 244.714 502.819 244.611C502.955 244.508 503.106 244.413 503.256 244.318C503.414 244.227 503.571 244.136 503.743 244.053C503.914 243.97 504.093 243.892 504.278 243.825C504.45 243.759 504.642 243.697 504.835 243.634C505.027 243.58 505.22 243.526 505.426 243.48C505.626 243.438 505.832 243.392 506.039 243.363C506.245 243.333 506.466 243.304 506.672 243.282C506.885 243.265 507.099 243.248 507.319 243.243C507.539 243.238 507.759 243.233 507.987 243.24C508.207 243.243 508.427 243.254 508.647 243.274C508.867 243.294 509.094 243.317 509.314 243.345C509.527 243.377 509.746 243.413 509.966 243.457C510.186 243.501 510.405 243.554 510.618 243.61C510.83 243.667 511.042 243.732 511.255 243.805C511.46 243.873 511.665 243.951 511.863 244.032C512.061 244.113 512.251 244.198 512.428 244.292C512.611 244.381 512.781 244.471 512.943 244.573C513.112 244.67 513.26 244.772 513.415 244.878C513.57 244.984 513.704 245.095 513.837 245.205C513.971 245.315 514.09 245.433 514.202 245.548C514.315 245.662 514.413 245.785 514.51 245.907C514.608 246.03 514.692 246.153 514.769 246.279C514.845 246.406 514.915 246.537 514.963 246.664C515.018 246.795 515.066 246.922 515.1 247.057C515.141 247.188 515.161 247.324 515.18 247.459C515.193 247.59 515.198 247.725 515.189 247.861C515.181 247.996 515.165 248.127 515.142 248.263C515.112 248.402 515.067 248.534 515.016 248.669C514.965 248.805 514.892 248.936 514.819 249.068C514.739 249.204 514.645 249.331 514.544 249.463C513.852 250.319 513.124 251.171 512.389 252.002C511.654 252.834 510.876 253.674 510.084 254.497C509.293 255.321 508.473 256.144 507.639 256.943C506.79 257.759 505.921 258.562 505.051 259.341C504.168 260.128 503.256 260.915 502.33 261.686C501.404 262.456 500.435 263.227 499.481 263.974C498.527 264.712 497.523 265.462 496.505 266.205C495.494 266.935 494.448 267.669 493.395 268.375C492.356 269.08 491.267 269.79 490.165 270.484C489.628 270.826 488.725 270.851 488.139 270.546C488.125 270.537 488.111 270.529 488.09 270.517L488.062 270.517Z" fill="#D9FF6D"/>
<path d="M483.177 268.589C482.641 268.279 482.626 267.775 483.149 267.449C484.18 266.797 485.204 266.132 486.2 265.459C487.196 264.787 488.178 264.098 489.124 263.413C490.07 262.728 491.017 262.019 491.935 261.31C492.846 260.605 493.75 259.879 494.626 259.154C495.508 258.424 496.363 257.679 497.182 256.945C498.008 256.208 498.828 255.45 499.618 254.683C500.417 253.913 501.193 253.139 501.92 252.377C502.662 251.607 503.389 250.813 504.095 250.022C504.794 249.236 505.472 248.43 506.135 247.623C506.474 247.207 507.329 247.023 508.044 247.213C508.76 247.403 509.066 247.894 508.727 248.309C508.056 249.137 507.357 249.956 506.65 250.762C505.937 251.573 505.188 252.38 504.433 253.167C503.684 253.941 502.9 254.736 502.08 255.526C501.275 256.301 500.434 257.079 499.593 257.833C498.753 258.587 497.87 259.341 496.972 260.087C496.082 260.829 495.157 261.567 494.231 262.289C493.299 263.014 492.331 263.736 491.363 264.433C490.388 265.135 489.385 265.836 488.375 266.525C487.357 267.21 486.319 267.891 485.266 268.556C484.729 268.898 483.827 268.922 483.241 268.617C483.227 268.609 483.213 268.601 483.192 268.589L483.177 268.589Z" fill="#D9FF6D"/>
</g>
<path d="M216.588 189.164L130.968 139.729C114.722 130.348 116.76 113.965 135.515 103.137L212.033 58.9607C230.788 48.1324 259.166 46.9497 275.412 56.3315L361.032 105.766C377.278 115.148 375.24 131.53 356.485 142.359L279.967 186.535C261.212 197.363 232.834 198.546 216.588 189.164Z" fill="#2D3D4F" stroke="#142131" stroke-width="2.58462" stroke-miterlimit="10"/>
<path d="M264.716 110.803L236.85 94.7127C234.063 93.1126 234.423 90.308 237.623 88.4383C240.841 86.5866 245.695 86.3888 248.482 87.9889L276.348 104.079C279.134 105.679 278.775 108.484 275.575 110.354C272.357 112.205 267.503 112.403 264.716 110.803Z" fill="#D9FF6D"/>
<path d="M281.614 120.566L280.05 119.667C277.264 118.067 277.623 115.263 280.823 113.393C284.041 111.541 288.895 111.343 291.682 112.943L293.246 113.842C296.033 115.442 295.673 118.247 292.473 120.117C289.255 121.968 284.401 122.166 281.614 120.566Z" fill="#D9FF6D"/>
<path d="M272.896 140.289L215.402 107.083C212.615 105.483 212.975 102.679 216.175 100.809C219.393 98.9571 224.247 98.7594 227.033 100.359L284.528 133.565C287.314 135.165 286.955 137.97 283.755 139.839C280.536 141.691 275.682 141.889 272.896 140.289Z" fill="#D9FF6D"/>
<path d="M237.352 144.55L193.935 119.488C191.148 117.888 191.508 115.084 194.708 113.214C197.926 111.362 202.78 111.164 205.567 112.764L248.984 137.826C251.771 139.426 251.411 142.231 248.211 144.1C244.993 145.952 240.139 146.15 237.352 144.55Z" fill="#D9FF6D"/>
<defs>
<clipPath id="clip0_1557_459">
<rect width="94.6692" height="92.9161" fill="white" transform="matrix(0.866044 0.499967 -0.866044 0.499967 508.08 193.526)"/>
</clipPath>
</defs>
</svg>
