<svg width="300" height="300" viewBox="0 0 300 300" fill="none" xmlns="http://www.w3.org/2000/svg">
<path d="M57.4727 257.404C57.7605 256.92 58.0553 256.438 58.3571 255.958C80.3706 220.963 93.1142 179.579 93.1142 135.019C93.1142 99.116 122.22 70.0106 158.123 70.0106C194.026 70.0106 223.132 99.116 223.132 135.019C223.132 151.548 222.007 167.826 219.828 183.776M185.415 295C195.357 275.156 203.507 254.26 209.656 232.533M272.048 250.928C282.532 214.096 288.144 175.212 288.144 135.018C288.144 63.2109 229.933 5 158.126 5C134.444 5 112.241 11.3315 93.1172 22.394M11.8562 205.944C22.2683 184.511 28.1084 160.447 28.1084 135.018C28.1084 111.336 34.4399 89.1327 45.5025 70.0088M158.124 135.021C158.124 192.183 141.729 245.517 113.385 290.575" stroke="url(#paint0_linear_1630_4876)" stroke-width="6"/>
<defs>
<linearGradient id="paint0_linear_1630_4876" x1="128.39" y1="5.00017" x2="362.092" y2="70.5452" gradientUnits="userSpaceOnUse">
<stop offset="0.436101" stop-color="#2AAAE3"/>
<stop offset="1" stop-color="white" stop-opacity="0"/>
</linearGradient>
</defs>
</svg>
